<svg xmlns="http://www.w3.org/2000/svg" x="0px" y="0px"
width="64" height="64"
viewBox="0 0 172 172"
style=" fill:#000000;"><g fill="none" fill-rule="nonzero" stroke="none" stroke-width="1" stroke-linecap="butt" stroke-linejoin="miter" stroke-miterlimit="10" stroke-dasharray="" stroke-dashoffset="0" font-family="none" font-weight="none" font-size="none" text-anchor="none" style="mix-blend-mode: normal"><path d="M0,172v-172h172v172z" fill="none"></path><g><rect x="5" y="7" transform="scale(2.6875,2.6875)" width="54" height="50" rx="2" ry="2" fill="#f50057"></rect><path d="M18.51688,18.19437h134.67063c2.96853,0 5.375,2.40647 5.375,5.375v0c0,2.95625 2.95625,5.99313 0,5.99313h-139.75c-3.14197,-0.25928 -5.58535,-2.84163 -5.67063,-5.99313v0c0,-2.96853 2.40647,-5.375 5.375,-5.375z" fill="#fff7f0"></path><path d="M153.1875,153.1875h-134.375c-2.96853,0 -5.375,-2.40647 -5.375,-5.375v2.6875c0,-5.93706 4.81294,-10.75 10.75,-10.75h123.625c5.93706,0 10.75,4.81294 10.75,10.75v-2.6875c0,2.96853 -2.40647,5.375 -5.375,5.375z" fill="#efd8be"></path><path d="M69.875,104.8125c-2.96853,0 -5.375,2.40647 -5.375,5.375c0,2.96853 2.40647,5.375 5.375,5.375c2.96853,0 5.375,-2.40647 5.375,-5.375c0,-2.96853 -2.40647,-5.375 -5.375,-5.375z" fill="#ed7899"></path><rect x="25" y="25" transform="scale(2.6875,2.6875)" width="24" height="8" rx="1" ry="1" fill="#72caaf"></rect><rect x="25" y="15" transform="scale(2.6875,2.6875)" width="24" height="4" rx="1" ry="1" fill="#85cbf8"></rect><path d="M153.1875,16.125h-134.375c-4.4528,0 -8.0625,3.6097 -8.0625,8.0625v123.625c0,4.4528 3.6097,8.0625 8.0625,8.0625h134.375c4.4528,0 8.0625,-3.6097 8.0625,-8.0625v-123.625c0,-4.4528 -3.6097,-8.0625 -8.0625,-8.0625zM155.875,147.8125c0,1.48427 -1.20323,2.6875 -2.6875,2.6875h-134.375c-1.48427,0 -2.6875,-1.20323 -2.6875,-2.6875v-123.625c0,-1.48427 1.20323,-2.6875 2.6875,-2.6875h134.375c1.48427,0 2.6875,1.20323 2.6875,2.6875z" fill="#8d6c9f"></path><path d="M37.625,134.375c-1.48427,0 -2.6875,1.20323 -2.6875,2.6875v5.375c0,1.48427 1.20323,2.6875 2.6875,2.6875c1.48427,0 2.6875,-1.20323 2.6875,-2.6875v-5.375c0,-1.48427 -1.20323,-2.6875 -2.6875,-2.6875zM24.1875,134.375c-1.48427,0 -2.6875,1.20323 -2.6875,2.6875v5.375c0,1.48427 1.20323,2.6875 2.6875,2.6875c1.48427,0 2.6875,-1.20323 2.6875,-2.6875v-5.375c0,-1.48427 -1.20323,-2.6875 -2.6875,-2.6875zM77.9375,134.375c-1.48427,0 -2.6875,1.20323 -2.6875,2.6875v5.375c0,1.48427 1.20323,2.6875 2.6875,2.6875c1.48427,0 2.6875,-1.20323 2.6875,-2.6875v-5.375c0,-1.48427 -1.20323,-2.6875 -2.6875,-2.6875zM91.375,134.375c-1.48427,0 -2.6875,1.20323 -2.6875,2.6875v5.375c0,1.48427 1.20323,2.6875 2.6875,2.6875c1.48427,0 2.6875,-1.20323 2.6875,-2.6875v-5.375c0,-1.48427 -1.20323,-2.6875 -2.6875,-2.6875zM104.8125,134.375c-1.48427,0 -2.6875,1.20323 -2.6875,2.6875v5.375c0,1.48427 1.20323,2.6875 2.6875,2.6875c1.48427,0 2.6875,-1.20323 2.6875,-2.6875v-5.375c0,-1.48427 -1.20323,-2.6875 -2.6875,-2.6875zM118.25,134.375c-1.48427,0 -2.6875,1.20323 -2.6875,2.6875v5.375c0,1.48427 1.20323,2.6875 2.6875,2.6875c1.48427,0 2.6875,-1.20323 2.6875,-2.6875v-5.375c0,-1.48427 -1.20323,-2.6875 -2.6875,-2.6875zM131.6875,134.375c-1.48427,0 -2.6875,1.20323 -2.6875,2.6875v5.375c0,1.48427 1.20323,2.6875 2.6875,2.6875c1.48427,0 2.6875,-1.20323 2.6875,-2.6875v-5.375c0,-1.48427 -1.20323,-2.6875 -2.6875,-2.6875zM145.125,134.375c-1.48427,0 -2.6875,1.20323 -2.6875,2.6875v5.375c0,1.48427 1.20323,2.6875 2.6875,2.6875c1.48427,0 2.6875,-1.20323 2.6875,-2.6875v-5.375c0,-1.48427 -1.20323,-2.6875 -2.6875,-2.6875zM51.0625,134.375c-1.48427,0 -2.6875,1.20323 -2.6875,2.6875v5.375c0,1.48427 1.20323,2.6875 2.6875,2.6875c1.48427,0 2.6875,-1.20323 2.6875,-2.6875v-5.375c0,-1.48427 -1.20323,-2.6875 -2.6875,-2.6875zM64.5,134.375c-1.48427,0 -2.6875,1.20323 -2.6875,2.6875v5.375c0,1.48427 1.20323,2.6875 2.6875,2.6875c1.48427,0 2.6875,-1.20323 2.6875,-2.6875v-5.375c0,-1.48427 -1.20323,-2.6875 -2.6875,-2.6875zM131.6875,102.125h-45.6875c-1.48427,0 -2.6875,1.20323 -2.6875,2.6875c0,1.48427 1.20323,2.6875 2.6875,2.6875h45.6875c1.48427,0 2.6875,-1.20323 2.6875,-2.6875c0,-1.48427 -1.20323,-2.6875 -2.6875,-2.6875zM120.9375,112.875h-34.9375c-1.48427,0 -2.6875,1.20323 -2.6875,2.6875c0,1.48427 1.20323,2.6875 2.6875,2.6875h34.9375c1.48427,0 2.6875,-1.20323 2.6875,-2.6875c0,-1.48427 -1.20323,-2.6875 -2.6875,-2.6875zM51.0625,69.875h-16.125c-1.48427,0 -2.6875,1.20323 -2.6875,2.6875c0,1.48427 1.20323,2.6875 2.6875,2.6875h16.125c1.48427,0 2.6875,-1.20323 2.6875,-2.6875c0,-1.48427 -1.20323,-2.6875 -2.6875,-2.6875zM77.9375,110.1875c0,-4.4528 -3.6097,-8.0625 -8.0625,-8.0625c-4.4528,0 -8.0625,3.6097 -8.0625,8.0625c0,4.4528 3.6097,8.0625 8.0625,8.0625c4.4528,0 8.0625,-3.6097 8.0625,-8.0625zM69.875,112.875c-1.48427,0 -2.6875,-1.20323 -2.6875,-2.6875c0,-1.48427 1.20323,-2.6875 2.6875,-2.6875c1.48427,0 2.6875,1.20323 2.6875,2.6875c0,1.48427 -1.20323,2.6875 -2.6875,2.6875zM129,64.5h-59.125c-2.96853,0 -5.375,2.40647 -5.375,5.375v16.125c0,2.96853 2.40647,5.375 5.375,5.375h59.125c2.96853,0 5.375,-2.40647 5.375,-5.375v-16.125c0,-2.96853 -2.40647,-5.375 -5.375,-5.375zM69.875,86v-16.125h59.125v16.125zM51.0625,43h-16.125c-1.48427,0 -2.6875,1.20323 -2.6875,2.6875c0,1.48427 1.20323,2.6875 2.6875,2.6875h16.125c1.48427,0 2.6875,-1.20323 2.6875,-2.6875c0,-1.48427 -1.20323,-2.6875 -2.6875,-2.6875zM129,37.625h-59.125c-2.96853,0 -5.375,2.40647 -5.375,5.375v5.375c0,2.96853 2.40647,5.375 5.375,5.375h59.125c2.96853,0 5.375,-2.40647 5.375,-5.375v-5.375c0,-2.96853 -2.40647,-5.375 -5.375,-5.375zM69.875,48.375v-5.375h59.125v5.375z" fill="#8d6c9f"></path></g></g></svg>